/* XPM */
static char *_d8eaf7b35e64235b5314b4d3a5e85ceXc3INIWcpzbrYDPw[] = {
/* columns rows colors chars-per-pixel */
"64 64 249 2 ",
"   c None",
".  c #020101",
"X  c #0B0404",
"o  c #0A070B",
"O  c #130302",
"+  c #1B0402",
"@  c #16090B",
"#  c #090B17",
"$  c #150C18",
"%  c #16151A",
"&  c #0F1317",
"*  c #260704",
"=  c #380906",
"-  c #2D1015",
";  c #352C1D",
":  c #2A2317",
">  c #090E23",
",  c #0A1228",
"<  c #161728",
"1  c #0D1736",
"2  c #161838",
"3  c #251727",
"4  c #341C31",
"5  c #1A273A",
"6  c #1A272E",
"7  c #2A272A",
"8  c #303133",
"9  c #460904",
"0  c #59120D",
"q  c #68120E",
"w  c #51261B",
"e  c #54322B",
"r  c #6E3931",
"t  c #6D211C",
"y  c #705035",
"u  c #5B4D33",
"i  c #151C41",
"p  c #192755",
"a  c #17284B",
"s  c #2B2F49",
"d  c #183576",
"f  c #142C6E",
"g  c #28397B",
"h  c #343678",
"j  c #2A3365",
"k  c #4E3E52",
"l  c #763E78",
"z  c #56396B",
"x  c #314854",
"c  c #354C72",
"v  c #3E646F",
"b  c #4E4659",
"n  c #6A4C51",
"m  c #7A6947",
"M  c #45487A",
"N  c #4D4F74",
"B  c #4C7278",
"V  c #686C71",
"C  c #764D7B",
"Z  c #9D1105",
"A  c #90170B",
"S  c #891811",
"D  c #A51709",
"F  c #AA1E16",
"G  c #B92514",
"H  c #B32C19",
"J  c #933237",
"K  c #AE2C2B",
"L  c #9F301D",
"P  c #C8281D",
"I  c #C9321C",
"U  c #D92729",
"Y  c #D8363A",
"T  c #CC322D",
"R  c #E62D32",
"E  c #E73339",
"W  c #F6373A",
"Q  c #E22A2E",
"!  c #C01E1B",
"~  c #AE5635",
"^  c #E4462D",
"/  c #FB473B",
"(  c #FB593B",
")  c #E95034",
"_  c #FE643E",
"`  c #FF683F",
"'  c #EC603E",
"]  c #D15131",
"[  c #8E334E",
"{  c #8C3A6B",
"}  c #B1395F",
"|  c #D83B43",
" . c #CA3D4C",
".. c #E53C45",
"X. c #F53943",
"o. c #944D4A",
"O. c #B94E4E",
"+. c #B36B53",
"@. c #904179",
"#. c #AF4D6B",
"$. c #B9707C",
"%. c #866C4B",
"&. c #D94447",
"*. c #DB4E52",
"=. c #DC555A",
"-. c #E7444B",
";. c #EC4E4C",
":. c #D0734D",
">. c #FE6C42",
",. c #F66742",
"<. c #FD7748",
"1. c #E56B4A",
"2. c #CF5E6A",
"3. c #D86668",
"4. c #CE7573",
"5. c #568079",
"6. c #AC8B60",
"7. c #FF824E",
"8. c #FF8D56",
"9. c #FD8853",
"0. c #FF965C",
"q. c #E98156",
"w. c #CB867A",
"e. c #D19076",
"r. c #F39765",
"t. c #DCAB78",
"y. c #FFAC6B",
"u. c #FAA468",
"i. c #FBB977",
"p. c #F2B074",
"a. c #DD8251",
"s. c #FFC37D",
"d. c #193687",
"f. c #1C3B91",
"g. c #223D95",
"h. c #2F3B88",
"j. c #553F8B",
"k. c #1D4188",
"l. c #394A85",
"z. c #3C578B",
"x. c #284798",
"c. c #3A5699",
"v. c #314A96",
"b. c #3A679C",
"n. c #2B59A6",
"m. c #335AA3",
"M. c #344DAE",
"N. c #3966AA",
"B. c #3A79A9",
"V. c #3769B5",
"C. c #3A72B8",
"Z. c #444B83",
"A. c #475788",
"S. c #555A86",
"D. c #475793",
"F. c #4D4994",
"G. c #6D4D8F",
"H. c #46638C",
"J. c #466497",
"K. c #546896",
"L. c #55759A",
"P. c #4C6E93",
"I. c #6B6E90",
"U. c #5256A8",
"Y. c #4569A7",
"T. c #4776A9",
"R. c #5678A9",
"E. c #4879B1",
"W. c #546FB6",
"Q. c #667BA7",
"!. c #737BAB",
"~. c #6558A7",
"^. c #3A57C9",
"/. c #3F68C1",
"(. c #4B72CC",
"). c #6375C1",
"_. c #965289",
"`. c #907A97",
"'. c #AF7584",
"]. c #A15989",
"[. c #3D82AD",
"{. c #738992",
"}. c #4583AD",
"|. c #5884AC",
" X c #4487B2",
".X c #538EB3",
"XX c #6786AB",
"oX c #7887A7",
"OX c #7896AD",
"+X c #668BB2",
"@X c #6B96B8",
"#X c #7699B4",
"$X c #6893AC",
"%X c #6BAFB1",
"&X c #78C1B8",
"*X c #4586C7",
"=X c #5397D9",
"-X c #5589CB",
";X c #6795C9",
":X c #5AA7D9",
">X c #5FB2DE",
",X c #6DACCF",
"<X c #5DADE4",
"1X c #65B8E3",
"2X c #60AFE3",
"3X c #79CAD6",
"4X c #6BC6E9",
"5X c #73CAE5",
"6X c #7BD5E5",
"7X c #6FD4F5",
"8X c #7CE0EF",
"9X c #938F9B",
"0X c #B98A8A",
"qX c #BD968C",
"wX c #AB9494",
"eX c #A9A49C",
"rX c #B5A997",
"tX c #BAB59C",
"yX c #AAB09E",
"uX c #8688A1",
"iX c #879AAB",
"pX c #949BA4",
"aX c #819CB4",
"sX c #99A3A3",
"dX c #8EADB4",
"fX c #A5A4A2",
"gX c #C59685",
"hX c #C58980",
"jX c #C8A48B",
"kX c #D5B78B",
"lX c #C5B797",
"zX c #C8B190",
"xX c #E0B685",
"cX c #C9C199",
"vX c #D8C596",
"bX c #DDD49E",
"nX c #FFCC84",
"mX c #F8CA86",
"MX c #FED38A",
"NX c #FCD189",
"BX c #E9CE92",
"VX c #CFCFA3",
"CX c #86BAC8",
"ZX c #88D7DA",
"AX c #86CDCF",
"SX c #93EADB",
"DX c #83DAE1",
"FX c #87E6E6",
"GX c #92F0E1",
/* pixels */
"                                                      MXMXMXMXMXMXMXMX                                                          ",
"                                                      m MXMXMXMXMXMXMX                                                          ",
"                                                      ; MXMXMXMXMXMXMX                                                          ",
"                                                      ; MXMXMXMXMXMXMX                    .                                     ",
"            . .                                       e MXMXMXMXMXMXMX                    .                                     ",
"            . .                                     X m MXMXMXMXMXMXMX                  . .                                     ",
"              . *                                   @ t.MXMXMXMXMXMXMX                  + = O                                   ",
"              + *                                   ; MXMXMXMXMXMXMXMXu                 O ~ :                                   ",
"              = O                                 . %.s.NXMXMXMXMXMXbX;                 = a.*                                   ",
"              = + *                               . NXBXNXMXnXMXMXMXbXu               : 0 :.w .                                 ",
"              * +.X                             . %.BXBXnXMXMXMXMXMXbXm u             = 0 ] H +                                 ",
"              X s.y .                           . BXBXNXMXnXnXMXs.MXbXt.;             9 0 ] T *                                 ",
"              * s.i.X                         . 6.BXBXNXMXMXs.nXs.MXbXbXu m           = = I G =                                 ",
"            * t u.y.e                         : cXvXBXNXMXs.nXs.s.MXbXbXt.&             * q F 9                                 ",
"            + L a.u.+.O                     X cXcXvXNXNXMXMXs.s.s.s.bXVXVXm :             + = O                                 ",
"            * ) a.<.1.*                   , b tXvX; t.s.nXMXs.s.s.s.s.VXVXVX;                                                   ",
"          O q ' <.' 1.=                 6 i sXlXBXo p.s.s.s.s.s.s.i.i.bXVXtX6.%                                                 ",
"          + ^ ' _ _ ) =               7 , I.yXlX6.o qXi.i.i.i.s.s.mXi.xXtXVXtXV o                                 .             ",
"          9 ( ' ) ^ I =               o c sXtXkXn & V y.y.y.y.i.i.i.i.xXvXtXtXyXx %                             . .             ",
"        . A ) I I I ! *             : j OXsXlXkX5 5 %.u.y.y.y.y.y.y.y.i.xXlXlXtXeX8 2                           * O             ",
"        + I ^ G P G D +           & 1 XXsXyXzXwXo 5.u u.u.u.u.u.y.u.0.p.p.jXlXlXyXsX7 a                         + *             ",
"        = D I G G D 9 .         , , R.iXsXtXkXf v OXu 0.0.0.0.u.0.0.0.u.p.t.zXlXtXsXpX& c                       X *             ",
"        9 Z G D D D 0           o z.$XsXeXtXgX, %X&X8 8.9.8.8.8.8.8.8.r.r.r.zXzXrXeXsX{.6                     = y @             ",
"        9 Z Z D D Z           & p |.iXsXeXzXS.6 SXZX6 7.7.9.8.8.8.8.8.8.8.:.t.jXrXeXsXpXB 6                   * q.r             ",
"        = Z Z Z Z Z         # 1 R.OXiXsXrXt.p B SXSX5 <.7.7.7.7.9.8.8.7.1.o +.jXjXfXpXpXOXs 3               + L ' H O           ",
"        . q Z Z             # D.$XOXiXeXrXwX, AXSXSXv :.7.7.7.<.<.9.7.7.:.* e r.jXfXwXiXOX+X# 3             = ^ ) ^ *           ",
"          . . .           $ s |.OXiXyXeXt.b s SXGXGXAXr.<.<.<.<.<.<.<.<.~ w . q.qXrXwXpXiX+Xz.,           . A ^ ) ) 0 O         ",
"                          > Y.|.OXpXeXrXe.6 [.GXFXFXdXw.<.<.>.>.>.<.<.<.~ 8 x y jXqXwX9XuXoXR.a >         . G ^ ) ^ D O         ",
"                        o d R.@XiXyXeXgX+.a 6XFXFX6XdX`.<.>._ >.>.<.>.` r g $X< gXgXwX9XpXoXR.Y.,         O G I ^ I F O         ",
"                        1 m.|.iXsXeXrXe.n v 8X8X6X3XdX(._ >.>._ >.>.` ` s H.3X5 o.hXgX9XuXoXXXT.c o       X D G I G D +         ",
"                      $ h.T.$XpXsXeXqXe.6 >X8X8X6X5X>X(.,.>.,.>.` ` ` ` 7 %XZXP.w w.0XwXuXuX!.R.V.,       . q Z D Z Z           ",
"                      1 c.E.OXiXsXwXe.+.6 7X7X6X3X>X:X:X#.>.( ( ( _ _ _ % 3XZX6X7 4.hX'.uXoXoXQ.T.g >       . = 9 Z             ",
"                    - f T.+X#XaXsXe.e.o.x 7X7X4X>X:X:X:XW.( ( _ _ ( ( ( < FXDXZXs +.4.0X`.oX!.Q.R.m.#                           ",
"                    , n.R.+XaXpXwXqXqXu c 7X4X1X>X:X*X/.(./ ( ( ( ( ( J i 6X6XDXx b 4.0X9X!.!.XXR.N.i ,                         ",
"                  @ p N.+X@XaXfXgXqXe.e z.7X4X>X>X=XV.V.V./.;./ / / / 4 h.5X5X5X.XT.3.$.`.!.oXoXQ.Y.k.#                         ",
"                  $ g.C.+XOXaXeXqXqXe.w b.4X4X1X>X XV.n.V./._./ / / ) < (.1X5X5X4X<X3.$.'.`.!.I.W.Y.N.>                         ",
"                  2 x.E.+XOXiXeXqXhXw.w S.4X1X1X:X*XV.n.n.n.M.;.;.W S p =X2X1X1X2X).4.'.'.`.`.Q.R.E.N.1 2                       ",
"                # f N.|.@XOXpXeXqXw.w.r r 1X<X<X=X[.C.n.n.n.^._.W / [ M.=X2X<X2X=X).$.'.'.b b Q.R.E.N.p 4                       ",
"                o d.N.+X@XaXpXwXhX4.w.+.- ,X:X:X=X*XV.n.n.n.M.^./ W X.^.(.=X=X<X;X).2.$.'.# @ Q.R.Y.Y.h.3                       ",
"                > x.V.+X#XiXfX0Xe.4.4.4.- M =X=X*XC.V.V.n.x.g.M.G./ X.].(.=X(.=X!.].2.$.#.o 7 N Q.W.Y.m.$                       ",
"                1 x.Y.+X#XiXwX0Xw.3.3.3.*.= p *X(.V.N.n.n.k.f.x.^.X.X..._.(.(.-X(.;.=.2.r s P.x Q.W.U.m.-                       ",
"              $ p n.C.+XaXiX0X0Xe.3.3.3.3.-.[ ^.(./.k.f.d.k.d.g.M.].R X._.U.).).X.-.X.=.- %X&X6 Q.Y.Y.c.<                       ",
"              $ f v.W.+XaXiX4 0Xw.3.=.=.=.=.X...~.U.M.g.d d.d.f.M.} W R ~.~.^.@.R X... .* ZXZXo R.R.Y.c.2 i                     ",
"              X d.m.E.+XaXpX. 2.4.3.=.;.*.=.-.X.X.} { G.^.g.d.f.M.@.X.| ~.~.~.Q R | | q B ZXSXo K.R.Y.F.2 2                     ",
"              o d.m.E.+XpX{.o O.4.3.=.*.-.&.......R E R  .G.x.g.g.G.R j.F.^.Q Q R Q T 3 3XAXZX> D.R.Y.c.i 3                     ",
"              o g.v.Y.+XiXI.@ [ 3.=.=.*.&.-...E E R F X.R | j.M.M.l G.F.j.} U Q Q Q 0 c CXCXDX6 A.R.Y.c.2 3                     ",
"              @ g.m.Y.XXiXV : t *.*.=.&.-.&.E E R R - * Q Q { F.M.j.j.j.l U Q U U K 3 OXCXCX3X< N R.Y.v.<                       ",
"              O g.n.E.+XuXV 8 . #. .*.&.&.E ..Y E R - s k Q } { d.h.j.g.G.Q U U U = c ;X,XCX5X$ L.R.Y.F.%                       ",
"              o h.v.W.R.OXV 8 x e K | &.| | | E R Q - SX6 v @.K f h j.^.{ U U U q 5 Q.@X,X%X1X# +XR.Y.D.$                       ",
"              X h x.E.Q.oX!.7 ZX< L  .Y Y &.Y Y Y U = 3X&X5 j l f h h.[ ! U ! q @ S.I.@X@X,XP.8 .XR.K.h.$                       ",
"              X 4 v.D.R.!.uX% ZXV ; K  .Y | | Y T  .9 v.,X|.E.v.d.h.h.! ! U S = c G.Q.@X;X;Xx x R.R.J.p +                       ",
"                - v.D.R.{.uX% AXdX5.+ S H T T O.O. .t p .X|.b.z.j.z [ ! ! q X j D.K.XX+X+X.X6 |.R.R.D.3                         ",
"                X j c.R.Q.I.8 V dXdXA.- 9 q o.K O.K J 0 G.Y.T.R.Z.z K K = $ h F.D.K.K.I.Q.s x |.R.K.Z.+                         ",
"                  3 l.U.I.`.b 4 dXOX$XR.D.4 e o.K o.o.J o.l D.J.M z F [ g Z.Z.Z.S.K.K.K.v 6 |.|.K.D.a O                         ",
"                  o 4 D.K.I.I.X .XOXoXXXR.T.Y.J.K.n [ [ t n F.l.Z.M z h.M Z.Z.A.S.K.K.D.& P.|.L.D.Z.o                           ",
"                    O Z.S.I.S.e 4 +XXXXXQ.K.z.A.A.Z.l.h.h l.l.l.h.M M h M Z.A.A.K.K.R.|.|.|.|.K.D.<                             ",
"                      - S.S.G.V < M R.|.R.J.z.z.z.z.l.c l.l.z.z.A.Z.A.z.M Z.H.K.T.E. X}.|.L.K.N < X                             ",
"                      . - S.S.S.k $ M |..Xb.b.H.b.H.z.B.b.H.H.b.H.B.J.b.H.B.B.E.}. XT.|.L.K.j ,                                 ",
"                        . 3 S.N S.k @ < % L.|.}.T.B.[.[.[.B.B.[.B.B.[.B.[.[. X}. X}.R.L.N 1 #                                   ",
"                          . < k N S.A.c H.|.|.P.}.}. X X X.X.X[.[.[.[.[.[. XB.B.N.m.p > X 5                                     ",
"                              @ - s j M S.P.P.T.T.[.[.[.[.[.[.[.B.B.[.B.B.n.g a , # #                                           ",
"                                  - = + * - 5 j p d k.g d d d d.f p 1 1 , > > ,                                                 ",
"                                            * @ . . X o o o o # # > , ,                                                         ",
"                                                                                                                                "
};
