/* XPM */
static char *db80d6933f974d4bd5fb89ce0134f8edEdaWSdXkUlB5sLTu[] = {
/* columns rows colors chars-per-pixel */
"64 64 224 2 ",
"   c None",
".  c #040403",
"X  c #0A0906",
"o  c #0C0C0A",
"O  c #070707",
"+  c #12120C",
"@  c #19180F",
"#  c #090E17",
"$  c #0E1117",
"%  c #131413",
"&  c #1D1B13",
"*  c #171717",
"=  c #0F100F",
"-  c #201F16",
";  c #242216",
":  c #2D2A1C",
">  c #262519",
",  c #34311E",
"<  c #0D1527",
"1  c #131A29",
"2  c #121C33",
"3  c #070F24",
"4  c #192339",
"5  c #1E2229",
"6  c #2B2B23",
"7  c #292B2C",
"8  c #343123",
"9  c #3A3522",
"0  c #3A3828",
"q  c #242B38",
"w  c #2F3336",
"e  c #343635",
"r  c #302F28",
"t  c #413C26",
"y  c #403D2A",
"u  c #464129",
"i  c #4B452C",
"p  c #4A4631",
"a  c #544E32",
"s  c #5B5538",
"d  c #524C2F",
"f  c #635C3A",
"g  c #68613E",
"h  c #192848",
"j  c #1B2B52",
"k  c #273245",
"l  c #3A3E46",
"z  c #283757",
"x  c #1B3571",
"c  c #273B66",
"v  c #233F78",
"b  c #3B4658",
"n  c #3E444B",
"m  c #3A4A69",
"M  c #2C4477",
"N  c #364A75",
"B  c #2E4067",
"V  c #5D5C4A",
"C  c #4D5254",
"Z  c #605D46",
"A  c #666654",
"S  c #756D46",
"D  c #555F6C",
"F  c #46546E",
"G  c #556276",
"H  c #5B6366",
"J  c #6A7277",
"K  c #877D4E",
"L  c #8C8250",
"P  c #978C59",
"I  c #9D915B",
"U  c #A3975E",
"Y  c #B4A768",
"T  c #C2B470",
"R  c #1C3C8C",
"E  c #1E4093",
"W  c #1E4588",
"Q  c #254589",
"!  c #294C98",
"~  c #2B559E",
"^  c #3A5693",
"/  c #2C55A3",
"(  c #2C5BAC",
")  c #2555A8",
"_  c #335BA4",
"`  c #3A5AA4",
"'  c #2A5EB0",
"]  c #3A62AC",
"[  c #2965B7",
"{  c #3669B6",
"}  c #3C72BA",
"|  c #415B9B",
" . c #45619C",
".. c #697D95",
"X. c #415FA6",
"o. c #4467AB",
"O. c #416DB6",
"+. c #4373BD",
"@. c #4A75B9",
"#. c #5274B1",
"$. c #5C7DB6",
"%. c #567BB9",
"&. c #506DB0",
"*. c #627EB8",
"=. c #296DC2",
"-. c #2A75C9",
";. c #367AC9",
":. c #287ED4",
">. c #4A7CC4",
",. c #5294BF",
"<. c #4786BE",
"1. c #6687BB",
"2. c #7B92B8",
"3. c #7A848A",
"4. c #3B81CD",
"5. c #2D86D7",
"6. c #3C8DD8",
"7. c #3887D5",
"8. c #3994DD",
"9. c #338FE1",
"0. c #3998E3",
"q. c #3EA5E6",
"w. c #4785CE",
"e. c #5386C9",
"r. c #5788CA",
"t. c #488CD6",
"y. c #4A94D8",
"u. c #5A94D6",
"i. c #5594CA",
"p. c #6E8DC1",
"a. c #6995CC",
"s. c #7699CA",
"d. c #6699D5",
"f. c #7395CB",
"g. c #5AA7D3",
"h. c #6BB9D5",
"j. c #71BED2",
"k. c #71A8D2",
"l. c #4A9BE2",
"z. c #599EE1",
"x. c #48A5E9",
"c. c #59A8E7",
"v. c #5CBCEC",
"b. c #57B5EB",
"n. c #53B4F2",
"m. c #5ABDF4",
"M. c #5DBAF9",
"N. c #4FAEF0",
"B. c #69ACE9",
"V. c #75B5EB",
"C. c #6BBBF3",
"Z. c #66B8F4",
"A. c #7BBDF4",
"S. c #72B3E9",
"D. c #76C9D8",
"F. c #5DC3F2",
"G. c #69C9EE",
"H. c #6ED1EE",
"J. c #73D3ED",
"K. c #7DDDEC",
"L. c #79D5E9",
"P. c #69C7F8",
"I. c #72CCFC",
"U. c #79C7F8",
"Y. c #6ED1F3",
"T. c #7BDBFD",
"R. c #77D6F9",
"E. c #94A8BC",
"W. c #FFEC93",
"Q. c #809ECD",
"!. c #8AABD6",
"~. c #82A2CE",
"^. c #A6BFDF",
"/. c #88B9E7",
"(. c #88CFDC",
"). c #97C3EC",
"_. c #85DBE6",
"`. c #82CCFD",
"'. c #87C7F6",
"]. c #99CDF8",
"[. c #84D6FE",
"{. c #8BD5FF",
"}. c #8ADCFF",
"|. c #91D4FF",
" X c #93DFFF",
".X c #8FD2E5",
"XX c #B3DEFE",
"oX c #8BE6E4",
"OX c #84E3EB",
"+X c #8BE7E8",
"@X c #93ECE4",
"#X c #97E9E9",
"$X c #9CF1E5",
"%X c #98F1E8",
"&X c #83E3F2",
"*X c #84E2FE",
"=X c #8EE2FF",
"-X c #8BEBFC",
";X c #8CE9F4",
":X c #94EBFA",
">X c #9BF4FF",
",X c #99F5FC",
"<X c #A3EBED",
"1X c #A4F5E6",
"2X c #A6F8EC",
"3X c #ACFCF3",
"4X c #ADFEFE",
"5X c #A6F7F8",
"6X c #B4FEF6",
"7X c #B2FFFF",
"8X c #BAFFFC",
"9X c #B8F7F3",
"0X c #A6E9F8",
"qX c #C3FFFF",
"wX c #CCFFFF",
"eX c #C4F4FA",
"rX c #D4FFFF",
"tX c #DDFEFF",
"yX c #D3F2FC",
"uX c #CDEDFD",
"iX c #E3FFFF",
"pX c #EBFFFF",
"aX c #F5FFFF",
"sX c #FDFFFF",
/* pixels */
"                                                                                                                                ",
"                              W.                                                                                                ",
"                                                                                                                                ",
"                                                                                                                                ",
"                                                                                                                                ",
"                                                                                                                                ",
"                                                      W.                                                                        ",
"                            W.                                                                                                  ",
"                                                                                                  W.                            ",
"                              W.                                                                  W.                            ",
"                                                                                                                                ",
"                                                                                                                                ",
"                                                                                                                                ",
"                                                                                                                                ",
"                                                                                                                                ",
"                                                                                                                                ",
"                                                                                                                                ",
"                                                                  W.W.W.                                                        ",
"                                                                    W.W.W.                                                      ",
"                                                                    W.W.W.                                                      ",
"                                                                      W.                                                    W.W.",
"                                                                                                                            W.W.",
"                                                                                                                                ",
"                                                      T     , t t 0 , 0 ,                                                       ",
"                                        + + o X X & d a 0 % & ; - & - - - + o @ - 8 y y y t                                     ",
"                              & + + X O X X o # < 4 H J m c c N F M v N c c j h h k w e 7 * o # O .                             ",
"                        @ X . X = % 1 h x W ) ] ] ( [ { ( { o.>.>.a.u.d.d.{ / / / / / ( Q c j 4 $ O . o +                       ",
"                  P 9 8 8 e k c Q / [ [ { [ [ ;.w.4.w.4.w.B.V.z.z.z./.A.B.t.-.;.;.;.-.;.=.' ( ( ) W j 1 * - > ,                 ",
"              t f Z Z H 3.d.a.>.w.;.;.t.c.t.:.y.l.g.z.c.C.{.=X`.C.C.C.T.Z.t.9.6.0.6.;.>.-.=.=.[ ' ' ( ] ^ z 6 > > i             ",
"            % $ p 3.~.)././.S.B.B.y.6.B.U.b.y.l.x.m.P.U.R.5X4X>XI.T.I.P.N.0X4XM.N.x.9.9.:.:.=.-.=.=.[ >.>.%.X.c 6 ; 9           ",
"        . . # h #.s./.XX].|.A.A.U.U.l.n.C.b.N.b.b.P.P.Y.R.>X4XT.T.R.I.I.}.rXyX7XM.M.N.0.9.6.5.:.-.=.;.w.r.r.@.o.^ r > 9         ",
"      ; . 3 x / r.S.].XX|.|.{.[.U.[.Z.b.b.m.b.G.G.H.T.T.P.T.-X*XT.[.T.m.T.rXiX4XF.m.M.n.n.l.9.9.:.:.7.t.w.>.>.O.] | 7 -         ",
"      . 3 R R } >.B.|.{.{.}.}.}.=X-X*XZ.v.H.H.H.K.K.&X;X-X,X;X-X*XR.Y.H.G.T.,XY.Y.Y.P.m.F.N.q.8.5.5.5.4.t.>.;.>.] ` N - y       ",
"    O # x R ) >.u.'.{.`.}.=X=X=X:X5X,XJ.J.R.K.OXOXOX;X;X;X&X&X;XOXL.K.OXOXK.&X&X&XK.H.G.F.N.q.0.9.5.8.y.B.t.>.u.a.&.X.0 y       ",
"    o < R / { r.V.`.{.{.5XpXtX>X4X7X>XL.K.+X@X+X+X@X@X%X$X@XoXoXoXoX@X+X+XOXOXK.K.L.J.J.F.F.b.q.8.5.8.b.A.B.u.].!.f.X.Z S       ",
"    * 2 ! ` +.u.A.`.|. XrXaXaX7X4X8X>XL.+X@XoX@X%X$X1X1X1X1X1X1X$X$X$X%X%X%X%X@XOXOXOXOX&XT.K.F.N.7.6.l.c.y.e./.f.*.z a I       ",
"    - * ! X.@.e.S.'.'.}.5XpXiX5X7X7X:XoX@X@X1X$X1X2X2XeX9X9X9X9X9X9X8X6X3X2X3X$X$X+X%X4X>X;XR.T.Y.b.6.6.6.4.;.} X.c 0 i         ",
"    9 = q X.@.r.u.V.V.C.U.{.=X:X>X,X_._.oX@X2X2X3X3X9X9XeXpXaXtXiXtXpXtX8X5X2X$X$X$X4X2X4X4X,X-XR.C.c.4.;.;.} _ z : s           ",
"      & % k  .@.e.i.d.S.Z.U.R.T.P.L._._._._.$X6XqXwXrXwXeXsXsXsXsXaXaXiXqX0X#X_..X2X#XqXiX4X{.{.[.U.B.w.( ) M 4 * +             ",
"        + - w m @.r.d.a.i.i.i.i.g.g.h.h.j.D..X<X1X6X8X6X6XwXiXrXiXrXwX8X3X#XD.D.(.#X<XaXaXrX/.(.'.).s.a.B 2 # X +               ",
"          : > : w C 1.a.%.] { } +.+.<.<.,.k.(.(..X<X5X3X6X2X<X4XqXqXqX<X.Xh.g.,.,.k.s.yXtXuXs.~.!.!.J V > o +                   ",
"              u : : 0 l z v ~ _ ~ ] / / ~ ] #.#.1.f.$.%.%.#.1.p.s.Q.f.%.o._ ! ! &.1.2.!.).2...J S I S f f                       ",
"                  g e 6 * # $ 1 k m v Q ! _ #.#.$.p.*.#.#.$.$.1.p.p.p.o._ / ! W M G D H V V d S S Y T                           ",
"                          % = = * p 0 < 5 5 n n b b C m F D G D D D C l 2 1 # # % , i i L I I T                                 ",
"                                  K g t i u , u 8 8 8 6 6 0 p s V i 0 : + o O . X 9 U                                           ",
"                    W.W.                                f S L L P                                                               ",
"                    W.W.                                                                                                        ",
"                                                                                                                                ",
"                                                                                                                                ",
"                                                                                                                                ",
"                                                                                                                                ",
"                                                                                                                                ",
"                                                                                                                                ",
"                                                                                                                                ",
"                                                                                                                                ",
"                                                                                                                                ",
"                                                                                                                                ",
"                                                                                                                                ",
"                                                                                                                                ",
"                                                                                                                                ",
"                                                                                                                                ",
"                                                                                                                                ",
"                                                                                            W.W.W.                              ",
"                                                                                                                                "
};
