/* XPM */
static char *cb8c62e896a44818c736270884d8ca5acnTvxmC6LTqtEg7g[] = {
/* columns rows colors chars-per-pixel */
"64 64 99 2 ",
"   c #432514",
".  c #452817",
"X  c #462918",
"o  c #4A2C1C",
"O  c #4E301F",
"+  c #4F3221",
"@  c #533525",
"#  c #543827",
"$  c #563929",
"%  c #5A3D2C",
"&  c #5B3F30",
"*  c #5D402F",
"=  c #5E4131",
"-  c #624535",
";  c #664837",
":  c #634738",
">  c #654A39",
",  c #6A4D3D",
"<  c #6D503F",
"1  c #71513E",
"2  c #6A4F40",
"3  c #6E5242",
"4  c #715545",
"5  c #755847",
"6  c #795946",
"7  c #725748",
"8  c #755A4A",
"9  c #795E4E",
"0  c #785F50",
"q  c #7C604F",
"w  c #7E6251",
"e  c #7F6759",
"r  c #81624F",
"t  c #856655",
"y  c #886753",
"u  c #866855",
"i  c #896955",
"p  c #8D6A55",
"a  c #8E6A55",
"s  c #816758",
"d  c #836A5B",
"f  c #856958",
"g  c #836A5C",
"h  c #836B5D",
"j  c #846B5C",
"k  c #856D5E",
"l  c #866D5F",
"z  c #886959",
"x  c #8B6C5A",
"c  c #886F5F",
"v  c #8B6E5E",
"b  c #8D6F5F",
"n  c #906952",
"m  c #926952",
"M  c #9D6F54",
"N  c #876E60",
"B  c #876F61",
"V  c #886E60",
"C  c #896F61",
"Z  c #877063",
"A  c #887061",
"S  c #8A7163",
"D  c #8A7365",
"F  c #8B7366",
"G  c #8B7466",
"H  c #8C7568",
"J  c #8D7769",
"K  c #8F776A",
"L  c #8F796B",
"P  c #907463",
"I  c #927564",
"U  c #907566",
"Y  c #907769",
"T  c #90796B",
"R  c #91796C",
"E  c #907A6D",
"W  c #917A6D",
"Q  c #917B6E",
"!  c #927B6E",
"~  c #947B6C",
"^  c #957B6C",
"/  c #927C6F",
"(  c #997D6D",
")  c #937E71",
"_  c #947E71",
"`  c #957F73",
"'  c #968174",
"]  c #968276",
"[  c #978376",
"{  c #988276",
"}  c #988377",
"|  c #9C8374",
" . c #9B8478",
".. c #9E887C",
"X. c #A1887A",
"o. c #9F8B80",
"O. c #9F8C81",
"+. c #A58F82",
"@. c #A99284",
/* pixels */
"i t u f t 9 t t t 9 > % 9 d 9 9 r t t t t r r r t t t 0 s 0 9 w ; 0 0 r 9 ; 0 t 0 r t r t t t t t t t t t f t t t t t t r t r 0 ",
"t t t t t t t t t t t > % f C 0 9 9 0 0 0 0 9 9 9 9 9 9 w C ~ 2 2 0 9 9 9 % 8 5 9 9 0 9 0 0 t t f t t t t f t t t u t q 0 0 0 t ",
"v f t 9 9 t 4 w t 9 r 0 9 , 9 C g e 0 w 9 9 9 9 0 H Y R ) C , & 9 0 9 9 0 o 9 , 2 5  .} f 0 r 0 r t f t t t f t t t t t r 0 0 0 ",
"~  ._ R A 0 9 9 9 9 t ' R 9 ; @ e ) ) N 9 9 9 9 0 e 2 2 - % $ > 0 _ R 8 , 9 9 9 9 9 0 C _ C C g 0 9 s t t t t t t s 9 9 0 9 r 9 ",
"3 e / _ _ G F k Z N h C 0 > - @ # o 5 5 4 , - 2 8 9 9 9 9 9 2 $ @ - & & - - $ @ $ 2 4 4 4 > 9 t 9 s _ R _ H C Y s 9 0 r r 9 9 9 ",
"@ @ % , k A L w 0 9 , ; ; 4 w k s 0 0 5 $ ; 0 0 9 9 9 0 2 5 - > 5 0 r t r t t s t s 0 9 0 9 , ; & > > 8 > 3 2 s N C z 0 9 9 9 9 ",
"4 @ X .   @ 3 9 3 9 8 N H ) R F 2 4 * 5 0 9 0 0 0 r t 0 r t t t t f t t t t t t t t t t t r 9 9 4 3 3 + # 3 9 4 4 > 0 C s 9 9 9 ",
"t t 9 , = # o = 9 9 9 N N 7 = 8 0 r t t t t t t t t t t t t t t t t f t t t t t f t t t t t t t 0 0 ; 8 9 3 3 9 9 0 9 > 3 9 9 9 ",
"t t t s 9 9 9 2 $ , % % , t t t t t t t t t z t t t t u f t f t f t f t t t z t t t t t t t t t t t , 8 9 9 9 9 4 5 5 , + 0 9 9 ",
"t t t t t t 9 9 9 7 X 8 9 9 9 9 t t t t t z t t u t f t t t t t t t t t t z s t t f t f t z z t P b 5 8 9 9 9 0 0 5 5 9 0 4 5 9 ",
"t t f t t t f t w 9 3 > t k 9 9 0 t t t t t t t t t t f t f t f t t t t t t s z z t t t y t C _ C 5 , 4 r n M n 0 9 9 5 5 9 9 ; ",
"f t t u t t t t t w 9 9 3 L R t 9 t t t t z t z t f t f t t t f u t f t t t t t t t t z t y ~ F 9 9 t 0 n n n n 0 9 9 9 9 9 0 0 ",
"t t u f t t f f s t w 9 9 # s ' C t t t t u t t t t f t t t u t t t t t t t t t t t t t t ( 9 9 9 r t t r u u t 0 9 0 0 9 9 9 9 ",
"t f t t f t t t u t 9 9 3 = 7 3 - 1 t t z t t t t u t t u e u t t z t t t t z t t z t z ..+.4 9 9 t u t t t u t 9 9 9 8 9 9 9 9 ",
"t t f t u t t t t 9 w 0 3 9 w 9 , = & , 8 t t t t t f t u t u w 0 t t t t t t t t z t b G 4 0 0 r u u t i t y t 0 9 9 9 9 9 0 9 ",
"f f u t s t t t q T ' 9 , 9 w w 0 4 9 5 8 5 8 t 0 z t t u F w 9 4 9 t t z t z t t t t t 9 7 9 0 u t u u t z t t 9 9 9 9 9 9 9 9 ",
"t t t u t t s 0 H ..s : 4 w t t t e 4 4 v 9 9 w u t 8 Z ) L , 7 9 0 t f f t t t u u t q q 7 q t u u u u t u t t 9 9 9 9 9 9 9 9 ",
"t u t t t t 0 U +.k 3 9 q t t t t t t 9 > 9 9 9 w w v  .g % 3 9 0 t t u t t u u u u 4 3 4 6 t t u u u u t u z t 9 9 9 9 9 9 9 9 ",
"t t t t r 9 0 C L 4 9 q t d t t t t u t t 9 9 e g 9 g 4 3 9 9 t u u t t t f t t t w 5 q 6 t i i u u u t u t u r 9 9 9 9 9 9 9 9 ",
"f t t 9 9 9 3 2 4 9 9 t t t t u t t t t t t 9 9 2 2 : 9 9 9 u t u u f t u t i t i t q q r p i t u u u u t t t 9 9 9 9 9 9 9 9 9 ",
"t t r 9 9 9 8 5 9 w Z U ^ U A u t t t t w 9 9 9 8 ; 9 9 9 9 9 0 t t t u t i i p p p r r t t t t t r r t 9 0 0 9 9 9 0 0 9 w 0 0 ",
"t 0 9 9 9 9 0 5 8 G / ..+...X.G U G t t 9 9 9 9 9 , 9 9 9 9 9 9 9 9 0 r t i i t r r r q q 9 9 9 9 9 9 9 9 9 9 9 9 9 9 t H G 0 9 ",
"9 9 9 9 0 C g 9 w w 9 9 8 w 3 t z b t t 9 9 9 9 9 4 9 9 9 9 9 9 9 9 9 9 9 9 q r 9 9 9 9 9 9 9 9 9 9 9 9 9 9 9 9 9 9 0 0 R F > o ",
"9 9 9 0 R _ 5 & @ X 9 9 9 3 3 8 3 3 9 t 9 9 9 9 9 e 9 9 9 9 9 9 9 9 9 9 9 9 9 9 9 9 9 9 9 9 9 9 9 9 9 9 9 5 3 2 , , > & $ o & 4 ",
"9 9 g } ' w 8 @ = 4 9 9 9 9 9 9 9 9 8 = 3 9 9 9 w k g g w 9 9 9 0 9 0 w 0 0 0 0 9 9 9 9 9 9 q 9 9 9 9 9 9 9 9 9 2 @ & 4 4 9 9 9 ",
"9 N e C 9 3 3 7 9 9 9 9 9 9 9 9 9 9 9 9 9 3 > 8 9 9 3 g s 9 g g N C N N C C s 9 9 9 9 9 9 9 q e k d e F F s 3 = $ 4 9 9 9 9 0 2 ",
"g e 9 3 , 8 9 9 9 9 9 9 9 9 9 9 w 9 9 9 9 9 4 = 3 : 3 % 0 9 t C w 3 3 ; - , 9 9 q q 9 9 9 q w Z F H H g : 3 = 8 9 9 9 9 9 4 4 - ",
"3 , 4 7 9 9 9 9 9 9 9 9 q t t t t t t t w 9 w 9 9 9 9 3 % > = > ; 9 0 0 9 9 4 4 > > , , *   @ % > + = o   o = , 5 3 5 , & 4 % ; ",
", : 3 9 9 9 9 9 9 0 t t w t t t t t f t t t w w w 9 9 9 9 4 # > w 9 9 9 9 9 9 9 9 9 9 3 9 > @ % 3 9 9 9 9 9 9 9 0 4 : + > 0 9 ; ",
"9 8 9 9 9 9 9 9 t t w 9 9 9 9 w t u t t t w 9 w w q w 9 9 9 w = e H s 0 9 9 9 9 9 9 9 3 3 > 3 > , > > > > : > 3 2 : 0 9 , - - ; ",
"9 , 9 9 9 9 t t t 9 9 9 9 9 9 9 w w w 9 : 9 w t d h k A L _ _ 8 % k R ) ) L { R w 7 = : 4 w 9 9 9 9 9 9 9 9 9 9 9 9 9 9 9 9 9 @ ",
"9 9 9 9 0 t t 9 9 9 9 w g 9 9 3 4 w 8 k L ) R ' ) H G A d 8 > %   - , , 0 9 ; , 9 9 > 4 9 9 9 9 9 9 9 9 9 9 9 9 9 9 9 9 9 9 9 9 ",
"9 9 0 r r 0 9 9 9 0 N N 0 , > 9 $ & $ @ $ & 5 9 3 , * 3 = 4 9 9 9 9 9 5 8 8 9 9 4 , 9 9 9 9 9 9 w 9 9 9 9 9 9 9 9 9 9 9 9 9 9 9 ",
"r t s 4 0 9 9 9 g _ H > - 9 0 w 9 , & 8 9 9 9 0 9 9 0 0 0 9 9 9 9 5 8 9 9 9 9 2 ; 9 9 9 9 9 9 9 9 9 9 9 9 9 9 9 9 9 9 9 9 9 9 9 ",
"t 9 9 9 9 9 s Y R 0 ; - ; 9 9 % 4 9 9 9 0 r 0 s r t t t t t t t 9 w 0 9 9 9 9 > @ 4 9 9 9 9 9 9 9 9 9 9 9 9 9 9 9 9 9 9 9 9 9 9 ",
"9 9 9 9 0 C _ h , , - % 9 8 5 8 9 9 t t t t t t t t t t t t t s w w t t w t r 9 3 : 8 9 9 9 9 9 9 9 9 9 9 9 9 9 9 9 9 9 9 9 9 9 ",
"9 9 9 h _ H 0 , > 7 @ > 8 9 9 t u f t t t z t z t t u t t t t t t w w q t 9 t 9 9 9 9 8 9 9 9 9 9 9 9 9 9 9 9 9 9 9 9 9 9 9 9 9 ",
"9 9 f ..C 4 4 9 N H $ , 0 t t t u t t f t t t t t t t u t t t t w q t t 0 9 w r w w t 5 O 4 4 k e 9 9 9 9 9 9 9 9 9 9 9 9 8 9 9 ",
"9 9 F 8 ; 3 0 0 ) 8 , 0 t t g t t u t t z t z u t t t z t t t t t q t q 4 w t 9 w w w w > - 9 F ) ' e w w 9 9 9 8 q 9 9 9 9 9 9 ",
"9 0 ; 7 9 0 0 R e 5 r t t t t t f t t u t t t t t t 0 t r 1 5 ; 9 q 9 9 4 w w t w t w t 4 @ - = , 9 7 d Z Z d e e q 0 0 q 9 9 9 ",
"2 , 9 9 9 9 C F 7 t t t t t z t t t t t u t t z t t g t t q 0 8 3 9 9 4 4 t q q w 8 4 t < 9 h k q q q 2 3 3 e e e H Z Z F 9 3 0 ",
"4 9 9 9 9 k R , 0 z t t t t t t u t t t z t t t t u t t t t t 0 q 9 8 5 4 9 w t t 5 q t 5 : - - $ > 3 9 q q 7 2 3 = X * O = 9 9 ",
"9 9 0 t 0 Y 4 0 t t t t h t t t t t t t z t t z t t z t t t t 0 q 9 9 5 3 s T t 4 t t t t w 9 9 q q 9 9 q 0 9 9 4 2 8 = % = 7 3 ",
"9 9 r 0 4 - t t t z t t t t t u z t t h t t t t t t d t t h t r q 9 9 9 8 3 R w 5 u t t t 9 9 9 0 0 9 9 9 9 9 9 w 9 2 2 9 0 q q ",
"> 4 r 4 4 r t t t t t t t t 8 t t t t t t t t t t t t t u t t y u t q 9 9 4 % 4 4 w t t 9 9 9 9 9 0 0 9 0 0 9 9 9 9 q 3 9 0 9 9 ",
"r 9 $ % 9 i t t t z z s t t 2 t t f u t t z t t z t t z t t u t t t t w q 9 8 4 4 q w 9 9 9 9 9 8 q 9 9 q 8 9 9 9 0 q 3 3 q 9 9 ",
"s t t t t t t f t t t t t t 7 t z t t t t t t g t t t t t u t t t t t t t 9 8 O > 9 e 9 9 9 9 9 9 9 9 9 9 9 q q 7 7 7 9 2 q 9 9 ",
"t t t 8 t f t t t t t 9 t t 8 t t t g t u t t t z u t t u t t y t t t y t r , t ; 9 f 9 9 9 9 9 8 9 9 9 9 0 q 3 * q 9 9 9 7 9 9 ",
"t f t 3 t r t t t t r 0 r t C t t t t t f t t t u t t t t t t y r y t u t < e Z 9 9 e 9 9 9 9 9 q 9 9 9 9 e g + w 9 9 9 9 9 7 9 ",
"t t t 9 t u t t t t t 4 4 9 t 8 u U f t f t u u t y y y y t q y y r q r % w Z q 9 , e e 9 9 9 9 0 9 9 9 w Z , 7 9 9 9 9 9 9 9 q ",
"t t t t i t t t t t t t 8 8 2 & h | | ( z y y i r y t r y y r t u f q # : h 0 9 9 3 % 9 3 9 0 9 9 9 9 8 Z e = 9 9 9 9 9 9 9 9 9 ",
"r 5 t t t t t t t t t t t q w 3 = u ( X.@.+.( U I i t r 9 9 f C k w < O 9 c Z ] L 3 3 = = 2 7 q 9 9 0 ' ..w 3 9 9 9 9 9 9 9 9 9 ",
"t t t t t y y r y r r y r y r r 9 9 , @ 9 ~ p u y r 9 9 , 9 , - - = > X = = , q w e 9 9 0 9 9 3 8 0 q L e 8 3 0 e Z J O.' [ Z e ",
"t t y y r y y y y y y t y y i F U 0 r - X X & 4 , 5 - > 9 9 9 9 9 9 > # = > > = 2 = * * % = 7 9 q 2 9 w 3 7 q 3 = 3 8 e 8 7 3 9 ",
"u t y y y r t r y r y r z F I p 5 & % - 4 9 9 , > 4 9 9 9 9 9 9 7 9 9 9 9 9 9 9 9 9 9 9 9 9 9 9 9 9 7 = = % = @ = = 9 q q w 7 7 ",
"* t t U p t y y y y y I X.t 5 4 3 9 9 9 9 ; 2 ; 0 9 9 9 9 9 9 9 w 9 9 9 9 9 9 9 9 9 9 9 0 0 8 9 9 9 9 9 w 3 8 3 7 3 2 8 3 > , 2 ",
"6 ; 1 6 I U ( ( I r 6 3 r 4 , 9 9 9 8 % > 0 9 9 9 9 9 9 9 9 9 8 9 9 9 9 9 9 9 9 9 9 9 9 9 9 9 9 9 9 9 9 9 9 q $ 8 q 9 9 9 8 7 9 ",
"6 6 1 r r % = r ; o @ 3 9 r d 9 , , 3 w 9 9 9 9 9 9 9 9 9 9 9 9 q q 9 9 9 9 9 9 9 9 9 9 9 9 9 9 9 9 9 0 9 w w 8 2 q 9 9 9 9 8 q ",
"t y r 6 * 1 o     o * O X + - = , 9 9 9 9 9 0 t t r r r r t t t w q q q 9 9 9 9 9 9 9 9 9 9 9 9 8 q w 0 Z O.Z > , q q 9 q q q 0 ",
"y y y y r y y r r y y r 0 9 2 + w N w 9 9 9 9 q r t t r t y t t t w w q q 9 9 9 9 9 9 9 9 9 9 9 0 0 w Q L L 8 0 q 3 9 9 0 8 9 9 ",
"t t y y t y r y y r y t y t 9 4 ; 4 C ) 9 9 9 9 9 9 r f t t f f t 9 w w 9 9 9 9 9 9 9 9 9 9 9 9 9 9 q e = q 0 q 9 9 7 9 8 0 9 9 ",
"t t t y r y y y r t y t y t 9 9 9 2 o N 0 9 9 9 9 9 0 t f t t u t t t 9 q q q 9 9 9 9 9 9 9 9 9 9 9 0 * q 8 0 8 9 9 9 7 q 0 9 9 ",
"t t t t y y t y y t t t t t q 9 9 9 $ ; 5 , - 4 9 9 9 t f t t t t t q w w 9 9 9 9 9 9 9 9 9 9 9 0 0 7 = 9 9 9 0 9 9 0 0 0 q 8 q ",
"t y t t t t y t t t t t t t t t 0 : 5 9 0 4 - $ % 1 4 9 t u t t t t t t q w 9 q 9 9 9 9 9 9 9 9 9 q 3 9 9 9 9 q 8 9 q q 8 8 0 q "
};
