/* XPM */
static char *_64714fef7b344c1c409ef4c4d0f02fbeMprJdrXrhW4r615[] = {
/* columns rows colors chars-per-pixel */
"64 64 250 2 ",
"   c None",
".  c #010100",
"X  c #0A0303",
"o  c #0C0906",
"O  c #0A0B0B",
"+  c #130504",
"@  c #1D0605",
"#  c #140C08",
"$  c #1C130C",
"%  c #18120B",
"&  c #0D1313",
"*  c #171918",
"=  c #270908",
"-  c #380C0B",
";  c #24160C",
":  c #281B15",
">  c #361A10",
",  c #2A211C",
"<  c #362618",
"1  c #382611",
"2  c #0B162A",
"3  c #1A2829",
"4  c #2A2625",
"5  c #343230",
"6  c #460D0C",
"7  c #48110D",
"8  c #57120E",
"9  c #481A17",
"0  c #591815",
"q  c #570D12",
"w  c #681713",
"e  c #781A16",
"r  c #62140F",
"t  c #49321A",
"y  c #502E19",
"u  c #722917",
"i  c #582724",
"p  c #483526",
"a  c #553925",
"s  c #4D322E",
"d  c #772A25",
"f  c #763834",
"g  c #68332F",
"h  c #78471B",
"j  c #5C4634",
"k  c #774C26",
"l  c #794938",
"z  c #765436",
"x  c #6D4D33",
"c  c #56401D",
"v  c #28386C",
"b  c #172450",
"n  c #364C50",
"m  c #2A5767",
"M  c #4D504F",
"N  c #7A4946",
"B  c #765842",
"V  c #6B5A5A",
"C  c #4E6D6F",
"Z  c #5F6162",
"A  c #871B16",
"S  c #931B1B",
"D  c #8A221B",
"F  c #9B241B",
"G  c #98251C",
"H  c #853B15",
"J  c #A4241C",
"K  c #A9281E",
"L  c #AA351D",
"P  c #882822",
"I  c #992922",
"U  c #97322C",
"Y  c #873A35",
"T  c #983B34",
"R  c #8E322C",
"E  c #AC2B23",
"W  c #A32D25",
"Q  c #B42D24",
"!  c #A3322B",
"~  c #AB342A",
"^  c #BC332A",
"/  c #B5332B",
"(  c #AB3C35",
")  c #A63B35",
"_  c #B73B34",
"`  c #C3362D",
"'  c #C6382F",
"]  c #CC3C33",
"[  c #C43B32",
"{  c #9B5516",
"}  c #8F5118",
"|  c #A74E1B",
" . c #8C4C31",
".. c #AD433C",
"X. c #A4433D",
"o. c #B5433C",
"O. c #B05731",
"+. c #93683B",
"@. c #AC6524",
"#. c #B66B28",
"$. c #B17337",
"%. c #C34E1D",
"&. c #C7433B",
"*. c #D3453C",
"=. c #C25724",
"-. c #CC6528",
";. c #C67B37",
":. c #CF6930",
">. c #D4611B",
",. c #884743",
"<. c #974A45",
"1. c #8E5752",
"2. c #AA4A44",
"3. c #B64B43",
"4. c #B95B55",
"5. c #AF5651",
"6. c #8E684D",
"7. c #B36C52",
"8. c #906E69",
"9. c #AA6F6B",
"0. c #9D5C68",
"q. c #C84D46",
"w. c #D34B43",
"e. c #D74E46",
"r. c #DB554D",
"t. c #C25C55",
"y. c #CE544C",
"u. c #E15B53",
"i. c #DD764A",
"p. c #D36857",
"a. c #E5645C",
"s. c #E27D53",
"d. c #D96A63",
"f. c #D0736C",
"g. c #EA6C64",
"h. c #EE756D",
"j. c #D4853C",
"k. c #B08657",
"l. c #B78B65",
"z. c #B48B6F",
"x. c #8F807F",
"c. c #CB8647",
"v. c #D28B4B",
"b. c #D89558",
"n. c #D08B54",
"m. c #EA865C",
"M. c #E19C5F",
"N. c #E8B556",
"B. c #CF936B",
"V. c #EB8A62",
"C. c #F49B75",
"Z. c #F08E71",
"A. c #CCA377",
"S. c #DDA873",
"D. c #E4A56A",
"F. c #E9AC73",
"G. c #ECB37D",
"H. c #F4AD7C",
"J. c #C8AC50",
"K. c #FAD361",
"L. c #3272B3",
"P. c #354997",
"I. c #3477CB",
"U. c #487BC7",
"Y. c #28538E",
"T. c #8E788E",
"R. c #A57D84",
"E. c #3D85AF",
"W. c #5090B3",
"Q. c #698D97",
"!. c #338DD3",
"~. c #3A99E8",
"^. c #39A9EF",
"/. c #32A0CF",
"(. c #4B97DA",
"). c #4B8FD0",
"_. c #6991CA",
"`. c #4FAED8",
"'. c #6FABCD",
"]. c #4B99ED",
"[. c #689DF0",
"{. c #47A6E4",
"}. c #5CA8E7",
"|. c #4FB4F0",
" X c #75BAFA",
".X c #6AAFF2",
"XX c #58CBD3",
"oX c #6ECED7",
"OX c #58C7FB",
"+X c #57DAF9",
"@X c #52D1EF",
"#X c #68C5FC",
"$X c #75C7F9",
"%X c #68D8FB",
"&X c #78D8FA",
"*X c #70D0E6",
"=X c #57ECF4",
"-X c #6AE8EB",
";X c #66E9F8",
":X c #77E9FA",
">X c #68F6F8",
",X c #78F8FA",
"<X c #7AE7EB",
"1X c #AB8B8C",
"2X c #948CA5",
"3X c #BAA6B2",
"4X c #9199A3",
"5X c #DA9C82",
"6X c #CC928E",
"7X c #F7948D",
"8X c #D8A997",
"9X c #ECA588",
"0X c #F3BA86",
"qX c #FEB596",
"wX c #FDB99B",
"eX c #FEB799",
"rX c #F0B28F",
"tX c #D3B2B2",
"yX c #FBACA8",
"uX c #F6BDA5",
"iX c #F0BBAD",
"pX c #ECC496",
"aX c #F4C395",
"sX c #F1C18E",
"dX c #F9C2AA",
"fX c #EDC6B6",
"gX c #F9C4B8",
"hX c #F2CFA9",
"jX c #8EA9C9",
"kX c #A6A8C1",
"lX c #CAB9CB",
"zX c #8BCED1",
"xX c #89D1F5",
"cX c #87E6EB",
"vX c #88E8F6",
"bX c #95ECF2",
"nX c #84FCFD",
"mX c #89F8F9",
"MX c #98F7FA",
"NX c #92E7EC",
"BX c #A3ECF3",
"VX c #A2F7FC",
"CX c #ACFCFD",
"ZX c #A6F7FA",
"AX c #B6FBFC",
"SX c #B0CFE6",
"DX c #FED3CA",
"FX c #C2F7FE",
"GX c #FFE9E4",
"HX c #E9DAD5",
/* pixels */
"                                            . % 6.sXsXsXpXaXaXaXsXF.F.p $ .                                                     ",
"                                          . % 6.0XD.b.v.j.b.+.b.k.$.c.F.c .                                                     ",
"                                          . j F.c. .y k 7.B +.+.v.< t $.M.% .                                                   ",
"          .                             . p G.+.. h z B z.l.S.H.B.G.# 1 +.z .                                                   ",
"          $ z                           O n.+.. k B.z k.S.z.A.sXk.sXsX$ h b..                         .                         ",
"          $ J.                          # D.x > M.k.< k.F.p l.B.x G.l.B.. D.o                       . .                         ",
"          ; K.v.                      , , G.. t z k $ @.j.; $.$.> z B G.. H.: .                     . %                         ",
"          1 K.K.                      , B 0X. b.. . . . . . . . . . v.b., sXp .                     o J.9                       ",
"        + c N.N.#                     < z.sX. j.. s.; ; i.i.; = C.. ;.c.j pXl..                   . + K.c                       ",
"        + | j.N.#                     , A.aX. k . qX| | Z.C.| | eX. y % A.pXA..                   . } j.$.+                     ",
"        X >.:.:.1 .                   $ 0XhX. . . qXwXqXuXuXqXqXaX. . k.sXhXA..                 . + -.:.:.>                     ",
"      . . >.:.>.H .                   % pXpXaX. . 8XfXuXgXuXqXuXdX. 5 0XpXhX6.o                 X u >.-.=.w                     ",
"      . . %.%.%.| .                   o sXpXpXF.. 8.dX. 5XeXO qXqX. k.pXpXhXk..                 X e W W W 8                     ",
"      . X E L | L .                   . sXG.pXS.n.p eX5X. . 5XuX5Xp A.pXpXpXB .                 X A S S w X                     ",
"      . X S K J e .                   . G.D.9Xn.b.+ * qX9X9XqXB t 6.v.D.G.0Xc .                 . = 6 X X X                     ",
"      . . r S S - .                   X G.G.M.j.v.+.. % B.9Xp X k #.j.n.S.S.5 .                   @ X + -                       ",
"      . . + q 6 + .                   . D.S.v.;.#.@.$ . . . X p @.@.;.v.S.c.< .                                                 ",
"        . . X . .                     o c.#.;.@.{ { . O.O.:.; k { @.@.$.j.j.; .                                                 ",
"                                      1 ;.{ { { { } $ s.m.V.a . h h { @.#.$., .                                                 ",
"                                      t { { h $ O . . C.V.Z.X . < o 1 } @.;.$ .                                                 ",
"                                      x } O x.1XtXaX. . . . . eXdXfX8., 1 #.# O                         VXVX                    ",
"                                      B O j fXhXeXqXqX. M.. qXqXuXuXfX8.O t < ;                     ZXCX    VX                  ",
"                              MX,X,X  3 5 fXdXdXeXqXeX. . . qXqXA.6.wXwX9.; ; :     =X;X=X        *XbX      VX                  ",
"              VXMXoXbXoXBXVX,X>X,X  3 M GXdX8Xp * wXqXqXqXdXuXz.O , 5XrXqXB $ :   vX  -X,XnX,XXXNXBX        VX                  ",
"            MX      -XmXAXZX@XXX  C n 8XeXwXM n & & DXfXfXfX, n & O x C.qXqXp b U.xXxXL.'.$X@XbXcXMXbX-X  bX                    ",
"          NX    cX-XmXbX*XvXxXL.{.m 6.wXeXhXo T 7X3 & . . X * M u.> 3 V.9XqX5Xv P.BXbXI.L.).vX<X<X<X,X-XcXNX                    ",
"          cX  XXMXnX*X X|.~.,X].I.5 hXdXDXz.& [ u.w.y O X n r.g.g.4., O.m.qXqX8.v [.AXI.$XnX,X#X{.$X`.-XZXAXBX                  ",
"          ZXBX;X;X}.|.!.^.!.I.mX2 9.wXdXyX6.* u.g.r.w.e.4.r.u.Z.7Xu.N 7.i.Z.qXyX: v CXCXmX:X].].~.^.~.<XXX,XCXXX                ",
"            MXMX).!.!.#X].v b b p qXdXrX:.: * g.r.w.u.u.*.*.7Xh.u.e.p O.:.V.rXqXA.* 2     `.|.{.I.I.&XvX&X*X;XCXoX              ",
"          oX$X%X;X%X#X{.      , 5XuXiXf.:.$ X / yXu.*.a.e.*.r.g.q.q.o O.:.s.V.qXwXg .       ).@X`.`.mX}.(.*XE.>XmX              ",
"          ).`.OX$XCXmX      . 1.uXrXZ.:.:.X . ( &.e.*.] h.e.r.e._ 9 . i R i.m.C.qXqX% .         `.mXCX).U.}.E.@XmX              ",
"        W.|.].$XmX:XCX    . 5 uXuX9Xi.-.9 ; . X._ _ ` _ e.^ Q W Q X % } ;  .m.m.C.qXz.X           CXnX(.U.].].`.-XVX            ",
"      XX#X.X.X;X>X  VX    % 8.iXrXm.:.9 1 @.. u S _ Q Q Q Q E D w . { { h o , m.m.Z.qXx X           FXCXvXCX&X#XmXZXZX          ",
"      :X$XxX&X,X    VX  o p fXuXm.m.: . h { : @ D F J K K K G 7 o # { { $.t . ; V.V.m.9X< .           MXCXMX$X{.`.<XoXVX        ",
"      `.[. X>X,X  VX  . % C.7Xm. .* . . $ ;.z X 6 w A D S w = X X t #.#.a o   . o l s.s.B., X         ,X@X.X.X{.XX>X    CX      ",
"      XX.X#X%XvXVX    . B.s.$.a #       X +.% - X + 8 8 8 X . - 0 + x 7.o       . X & O.i.V.$ .         >X(.}.}.XX=X            ",
"      MX@X XAXZX    . : m.i.9 o         . . + 7 @ X X + X X - + 7 = X $ o           . X $ l a .       MX  /.).W.-X    VX        ",
"      ;X|.&XZXmX    . O : @ .             . - 8 @ w 8 X 6 r 8 = = 8 @ .                 . O :         >XbX`.}.cX  mXCX          ",
"      >X:XAX[.vX>X    . .               . @ 8 - 8 e 8 = A r w q + 6 w X .                           >X;X<X).`.oX,XFXVX          ",
"        bXmX}.|.+X;X=X                X X 8 w @ e S r = w e Q e = @ w e . .                       MXMX-X}.`.;XCXFX              ",
"        AX:X&X@X|.+X+X                . 7 8 7 = ^ Q S - e W ' S r @ 7 G - X                   NXNXbXcX*XMXMXVXVX                ",
"        BXMXcX+X^.|.OX,XMXVXVX      X X A 8 @ e y.] S g e E ] _ D - p T Q O O               NXcXW.!..XOX+X,X>X                  ",
"      VX  mXmXNX@X@X,X,X(.    bX    O U S 0 ; / 7XDXf.w R &.g.a.2.N 5 2.h.B.m s           oXvX%X(.#X].^.:X<X                    ",
"      VX    >XmXmXAX,X^.(.|.$XvX  & j d.2.5 g GXgX7XDX,.! r.7Xg.h.z.M 1XGXGXjXC zX  oX*X_.MX].|.].,XOX                          ",
"      VX      ZXAXCXnX>X+X>X&XcXQ.v R.5. .5 fX7Xd.yXgXT.t.d.d.h.6X9.Q.SX6XtX3XjXZ ).}.$X#X,X^.OX|.@X                            ",
"        VX  ZXVX  bX>X,XnX,XnXMX#XxXxX[._.zXlX0.R.0.3XjXT.lXlXT.T.jXxXQ.2XT._.AX).[.].|.+X,X^.+X=X                              ",
"          VX              *XMX;X|._. XxXMXVXxX.XjXjXBX&XjX_. XxX[.MX:X&XxXxXU.BX XL./.].nX,X  =X                                ",
"                            xX}.).].).|.,X.X%X%XnX:XnXMX}.}.&X&XMXAXW.'.T.2X6XlXCX).XX;XAX                                      ",
"                            C 4Xg.d.0.AX.X.X}.'.SXkXbX&X_.W.W.'.AX'.W.C T.9.f.2.HXZ :   VX                                      ",
"                          5 n DXu.u.yX3XZ x.9.7.4.t.yXiX7Xq.4.yXyXG q 7 Q ] ] Q 0.iXn zXVX                . .                   ",
"          .               O r yXDXDX7X7 0 ~ w.] ] ` g.DX] ] g.DX` F A 8 Q ] ] Q Q q.4XQ.                  . .                   ",
"          o             5 , ..a.a.^ J 6 D F ' &.] ` ' DX] w.DXa.` J A 7 Q ] ] ^ Q E P X                 . % .                   ",
"        # < t           3 V 3.w.&.Q E - D J ' ] ] ` ' iXgXDX7X` ` J A 7 K ] ] ^ Q E E &                 . +.X .                 ",
"        % k.c           3 6.( q.[ Q E i ..! w.] ] ^ ] w.h.u.' ` ` K F d / ` ] ^ J ..X., @             . o -.= .                 ",
"        % :.u         3 , 9.W _ _ q./ 9 4.~ ^ ] ] ^ ] ] ] ] ` ' q.q.K i Q ^ ] K S G P 8 ,             . ; >.| +                 ",
"      X - @.u         # i R q.~ J W ! i ) _ &.w.' r.] q.] w.` ] &.^ K w J Q Q 3.F D A 8.@             O e J 6 X                 ",
"      . 7 ~ @         5 ,.<.3.( W S ~ U y.f./ / u.` w.^ q.] &.] ^ o./ u 3._ J I ! P e N *             . e A + .                 ",
"      . = w O       n 5 1.0.2.( 3.3.y.3._ _ t.W d.q.q.a._ ^ &.w.q.o.f.U ~ ~ S ! I 5.Y 0 4 0           . X X .                   ",
"      . X X .       % s Y T <.( ( 3.3.f.o.f.) ! ..~ Q d._ _ _ ~ W ..t.( F ! F ! 4.<.Y N 4 s             . .                     ",
"        . .         4 f ,.1.T 6X/ o.t.f.3.( ..f.( ) 3.( 3.9XF ..! t.! ! S ( W ! 2.<.9.g 9 :                                     ",
"                    4 g ,.N 1.T 2.p.( ( ! ) 3.! 3.t.5.3.G ) ) ! 2.3.3.I G U U p.P f 8.0 9 #                                     ",
"                    4 i g f d Y d 6X9.! 4.) ! ! ) 4.X.U ..3.( ..( 3.4.G ..T P 5.9.N ,.N 9 O                                     ",
"                    5 j f i 8.d f <.R X.9.R D U ! F 4.5.) 4.T X.3.X.P 2.e f Y 2.,.1.N N i *                                     ",
"                    f N g 1.g Y Y 3X8Xf f P G 9.<. .0.0.9.d Y Y <.N Y f q d u d <.1.g g i &                                     "
};
