/* XPM */
static char *e3a61bbdfc314176e7d936db529d1c9a3Gtf0gkTIVnMRE1P[] = {
/* columns rows colors chars-per-pixel */
"64 64 226 2 ",
"   c None",
".  c #020100",
"X  c #0B0401",
"o  c #0D0906",
"O  c #130601",
"+  c #1A0601",
"@  c #150A04",
"#  c #1B0A02",
"$  c #130E0A",
"%  c #1B0E09",
"&  c #17110B",
"*  c #1C130C",
"=  c #1D1511",
"-  c #200401",
";  c #230C02",
":  c #2C0E01",
">  c #2A0601",
",  c #310E01",
"<  c #2E1103",
"1  c #22150C",
"2  c #2B160C",
"3  c #29190F",
"4  c #341102",
"5  c #3A1403",
"6  c #341A0C",
"7  c #371608",
"8  c #241A13",
"9  c #2B1B13",
"0  c #291E19",
"q  c #231610",
"w  c #3C1E11",
"e  c #36210F",
"r  c #2A2117",
"t  c #34251A",
"y  c #3B2517",
"u  c #372720",
"i  c #342B27",
"p  c #421503",
"a  c #441904",
"s  c #4C1A04",
"d  c #451C08",
"f  c #4C1E09",
"g  c #491703",
"h  c #541D05",
"j  c #581F05",
"k  c #511E09",
"l  c #4C200C",
"z  c #5C2105",
"x  c #53210A",
"c  c #5A230A",
"v  c #562005",
"b  c #4C2615",
"n  c #422916",
"m  c #5D2E1B",
"M  c #522E1E",
"N  c #4B321B",
"B  c #593719",
"V  c #642406",
"C  c #6A2606",
"Z  c #6E2807",
"A  c #63260A",
"S  c #6B2B0D",
"D  c #6F2708",
"F  c #722907",
"G  c #722508",
"H  c #742A09",
"J  c #7A2D0A",
"K  c #732607",
"L  c #7B310F",
"P  c #692D12",
"I  c #65331B",
"U  c #773518",
"Y  c #702F11",
"T  c #453323",
"R  c #4B3628",
"E  c #543827",
"W  c #503E36",
"Q  c #6B3A24",
"!  c #78471B",
"~  c #5D4736",
"^  c #5A432F",
"/  c #684A2D",
"(  c #784B27",
")  c #694935",
"_  c #7B4A34",
"`  c #765436",
"'  c #7B532E",
"]  c #775743",
"[  c #76614A",
"{  c #822F0D",
"}  c #88350E",
"|  c #823410",
" . c #893812",
".. c #943B12",
"X. c #9A3E13",
"o. c #923F1B",
"O. c #9C4016",
"+. c #9E441A",
"@. c #924F12",
"#. c #9C5616",
"$. c #995517",
"%. c #8C521D",
"&. c #A84A1E",
"*. c #A35B1B",
"=. c #8F4829",
"-. c #9C4A28",
";. c #895526",
":. c #854B30",
">. c #8A5739",
",. c #955539",
"<. c #965A24",
"1. c #A44C23",
"2. c #A14A26",
"3. c #A95129",
"4. c #A95A37",
"5. c #B85C34",
"6. c #96673D",
"7. c #8C623C",
"8. c #AD6423",
"9. c #A2652F",
"0. c #B36925",
"q. c #B76D2A",
"w. c #A9633A",
"e. c #AA713D",
"r. c #B97436",
"t. c #C1742F",
"y. c #CD6234",
"u. c #D2683B",
"i. c #C47936",
"p. c #C77E3B",
"a. c #C57B37",
"s. c #835D4D",
"d. c #876546",
"f. c #8A6251",
"g. c #966B59",
"h. c #9A7451",
"j. c #B86B48",
"k. c #AF7744",
"l. c #BB754C",
"z. c #B07450",
"x. c #927366",
"c. c #B17D68",
"v. c #A57561",
"b. c #C56C43",
"n. c #D56E43",
"m. c #DD7549",
"M. c #DD784D",
"N. c #C57B59",
"B. c #C07250",
"V. c #DB7F56",
"C. c #CA7148",
"Z. c #E27D53",
"A. c #CA803D",
"S. c #A7835D",
"D. c #B88557",
"F. c #B78D63",
"G. c #BD926C",
"H. c #B08971",
"J. c #CB8647",
"K. c #D28B4C",
"L. c #D08745",
"P. c #C88B55",
"I. c #D89558",
"U. c #DF8159",
"Y. c #EB865C",
"T. c #EC885E",
"R. c #E5835A",
"E. c #E19C5F",
"W. c #E2A75B",
"Q. c #C68C66",
"!. c #D78867",
"~. c #CA9667",
"^. c #D79D68",
"/. c #CE9279",
"(. c #CC9077",
"). c #EC8B62",
"_. c #E68760",
"`. c #F1936B",
"'. c #EA9A77",
"]. c #F49A74",
"[. c #F59E79",
"{. c #F08F66",
"}. c #DEA16A",
"|. c #CDA175",
" X c #CBA77B",
".X c #DDA876",
"XX c #DCB57F",
"oX c #E2A46B",
"OX c #E9A66A",
"+X c #ECAD73",
"@X c #E1A974",
"#X c #ECB37D",
"$X c #F2B37A",
"%X c #F8A27F",
"&X c #A18A80",
"*X c #CB9882",
"=X c #DD9D82",
"-X c #D6AA97",
";X c #EAA386",
":X c #FCAC8A",
">X c #E7B887",
",X c #F2B781",
"<X c #F5BD8A",
"1X c #F2B984",
"2X c #F6AF91",
"3X c #EDB49B",
"4X c #FFB596",
"5X c #FEB799",
"6X c #FBB99D",
"7X c #ECAE95",
"8X c #D0B0A3",
"9X c #ECBAA5",
"0X c #F5BDA5",
"qX c #F9BCA3",
"wX c #F5BFA9",
"eX c #E9C28D",
"rX c #F7C18F",
"tX c #EBC293",
"yX c #EDC89B",
"uX c #F4C293",
"iX c #F5C496",
"pX c #EECDA4",
"aX c #F5C0AA",
"sX c #EDC5B5",
"dX c #EDC9B9",
"fX c #F1C5B2",
/* pixels */
"                                            . & d.<XuXrXrXrXuXiX<X+X+XR & .                                                     ",
"                                          . o h.1XoXI.K.L.K.7.I.D.k.J.+X^ .                                                     ",
"                                          . ^ +XK.;.N ' S.[ 7.>.J.y N e.I.& .                                                   ",
"                                        . T ,X7.. / ' ` ~.F..X#XF.$X& y 9.` .                                                   ",
"                                        $ Q.7.. ( ~.` D..XG. XrXS.rX1X* ( I..                                                   ",
"                                        & oX( e OXh.t l.+Xi D.}./ $XG.~.. }.o                                                   ",
"                                      r r $X. N ' ( * 9.A.9 r.e.6 ' ] ,X. $X8 .                                                 ",
"                                      r [ 1X. I.. . . . . . . . . . J.E.r eXR .                                                 ",
"                                      u F.uX. A.. Z.2 % m.m.1 1 [.. r.L.~ eXD..                                                 ",
"                                      8  XiX. ( . 4X&.&.`.].&.3.5X. B & XXyX X.                                                 ",
"                                      = >XiXX . . 4X6X5XwX6X4X4X6X. . S.eXpX|..                                                 ",
"                                      & tXpX6X. . -XfXqXfXwX4XqXaX. R XXyXpXd.X                                                 ",
"                                      o uXuXuX#X. x.aX4X. . ;X4X5X. F.eXyXpXS.X                                                 ",
"                                      . <X#XyX}.P.R 4X. s.f.. 6X.XT |.tXeXtX[ .                                                 ",
"                                      . ,XoX#XK.I.o = 4X2X2X5X] T 6.K.}.>X>X^ .                                                 ",
"                                      . #X#X^.p.K.6.. & (.;XT . ( q.J.K..X.Xi .                                                 ",
"                                      . oX}.K.A.q.8.& . . . X T 8.0.r.K..XJ.t .                                                 ",
"                                      o K.0.a.8.$.#.. 4.5.y.3 ( $.*.0.a.A.p.1 .                                                 ",
"                                      y a.#.#.*.@.@.* U.Y.T.E . ! ! #.8.t.a.r .                                                 ",
"                                      n $.#.! & $ . . ].).`.. . t o e %.0.q.* .                                                 ",
"                                      / %.o &X&X8XqX. . . . . 6XfXsXx.r e q.& o                                                 ",
"                                      ) o ^ dXdX5X4X4X. W.. 4X4XqX0XsXx.$ N t q                                                 ",
"                                      X i sXfX4X5X4X4X. . . 5X4X(.] 6X6Xv.8 9 8                                                 ",
"                                    . i sX6X/.y . '.4X4X5X0XqXc.. = /.4X5X] * t                                                 ",
"                                    o *X6X4Xw 7 . . /.dXdXQ.; . . X Q ;X4X4XT o                                                 ",
"                                  X g.5X6X;X% :.,.. . . . . . 0 -.7 O b.:X:X2X0 .                                               ",
"                                  u 4X5XaX>.X j.N.l.M . . X j.l.-.U o -.Y.4X4Xg..                                               ",
"                                X c.5XaX3XU X 4.l.N.z.l.s.N.l.j.-.3.6 o.n.`.4X5X8 .                                             ",
"                              . R 5XwX7Xu.2 . -.M Q 0 s.C.N.j.4.3.1.7 +.y.T.:X4X=X. .                                           ",
"                              t =XwX9XR.y.# X -.m o w l.j.w.w -.m U + 3.y.Z.{.4X5XW .                                           ",
"                            . f.0X3X'.u.y.X . +.6 $ 9 4.5.3.6 X I 7 X I =.m.Y.].4X4X& .                                         ",
"                          . u 0X9X;Xu.y.n 3 .  .l 2.l m 4.3.b X S X * ;.* :.Y.Y.[.:XG.X                                         ",
"                          & x.9X7XY.u.w e 8.X c +.&.1.1.1.P 5 1 @ . <.$.! X 9 Y.).{.:X) X                                       ",
"                        o W fX9XY.U.9 . ! #.1 # O.O.&.O.+.S o.H X $ *.#.q.T . q _.).).:Xu .                                     ",
"                      . & ].;XY.,.& . X 1 t.` X l ..X.O.O.O.w X X T q.q.B o   . o _ M.V.!.0 .                                   ",
"                      . !.Z.j.M $       o 6.& ; X @ O.O.O.X . 7 | O / k.o       . X = 4.M.).= .                                 ",
"                    . 0 R.n.b $         . . X L @ X X @ O X 7 @ Y d X = X           . X % _ W .                                 ",
"                    . o 9 # .             . P ..; } Y X d X...7 7 ..@ .                 . o 9                                   ",
"                      . .               . ; O.l l O.O.< X.X.P A ; S H X .                                                       ",
"                                      . X ....; Z O...< X.X.L d d : H k . .                                                     ",
"                                      . k X.c ; X.X. .2 X.X...f k ; f G > .                                                     ",
"                                    . X X.X.; c X.X.X.f X.X.X.S 2 + # G G X .                                                   ",
"                                    . { X.L % ..X.X...x X.X.X.d X X . p H s . -                                                 ",
"                                  . 7 X.X.7 7 X.L X...x X.{ # O , # X - K G # .                                                 ",
"                                . X X.X.X.# L X.< f ..x x X X 7 , 4 X X K K K # +                                               ",
"                                . H ..X.S ;  .X.L ;  .; X O , 5 , k X . C K K a .                                               ",
"                              . 4 f  ...7 7 ..X...d # O Q _ X 4 4 # % . 7 H K V O X                                             ",
"                            X . { 4 # ..; C { } x O @ ; w.C.2 X X y _ . O j H K 5 .                                             ",
"                            . a { } X X # F H V O 4 p X M I @ + b b.=.. . ; F K a ; +                                           ",
"                          . X H J } z . X C F l V L H ; X X - + 9 Q O . X # a V z v X                                           ",
"                          . a H H J L < . X v Z H H H v + + : , . X + + + + X C Z Z # O                                         ",
"                        . X D G F J F < l O X s Z F C K : X ; O 9 1 > + + + O a Z Z s .                                         ",
"                        . , C D C K C < z V a a C Z C Z z o o m V.Q + X - s p + z V O .                                         ",
"                        . j D A V Z V ; z V C C V C C Z Z ; # b.j.# X ; h h j + + ; . O O                                       ",
"                      . + C C z V Z V ; v V V V V C V C Z v # b O @ h , h g g p X . @ 4 +                                       ",
"                      . , V C j z V v ; a z O s z V z z Z z @ X # h h : h s s g X . 5 5 X                                       ",
"                      X 5 j j h p j s s h ; X z z z z v z 5 # @ p s g : h s g p . X ; 5 X                                       ",
"                    . X , s s s O X @ : 5 . 4 v z < # s s < 4 > # p p p g g g O X , O , O >                                     ",
"                    X X 5 5 p s 4 < # X . . # 5 ; X a h a 5 p , @ 4 p p g p , . - 5 + ; + +                                     ",
"                    X + , 4 5 5 5 5 5 O . ; O . . ; s a p 5 5 4 > # 5 p p 5 + # 5 4 , ; + +                                     ",
"                    . + , 4 4 4 4 4 : . # : ; . O X O 5 5 5 , 4 4 # 4 5 5 5 , 4 4 , , : # X                                     ",
"                    X # , 4 4 4 4 4 # O : : . @ a 5 # 4 p , 4 : 4 , 5 5 , , 5 4 < < : : - .                                     ",
"                    X + ; 4 4 : , : : , : ; X 4 5 5 5 < 4 5 , : , , , , , : , , : > : : ; .                                     ",
"                    > + # ; : 4 4 < , : ; ; ; ; < < ; ; ; ; ; : ; ; : , ; > ; ; ; > : ; ; .                                     "
};
