/* XPM */
static char *_e7e9dfc04714129c309c8162771da8d3gg3mvbCYSs5YYz5[] = {
/* columns rows colors chars-per-pixel */
"64 64 187 2 ",
"   c #060302",
".  c #0C0604",
"X  c #0F0A03",
"o  c #100704",
"O  c #140A05",
"+  c #1B0D07",
"@  c #150D08",
"#  c #1B0E08",
"$  c #16120A",
"%  c #1E120B",
"&  c #231D04",
"*  c #24130B",
"=  c #2B150B",
"-  c #241C0D",
";  c #2D190F",
":  c #31170C",
">  c #34190D",
",  c #3B1C0E",
"<  c #291710",
"1  c #251912",
"2  c #2D1A11",
"3  c #331C12",
"4  c #3A1E11",
"5  c #2B2409",
"6  c #2B240C",
"7  c #322905",
"8  c #3D3309",
"9  c #372117",
"0  c #3D2114",
"q  c #372A12",
"w  c #3D2419",
"e  c #3E3512",
"r  c #431F0F",
"t  c #411F10",
"y  c #6A090D",
"u  c #74100E",
"i  c #7C130E",
"p  c #6E1211",
"a  c #711412",
"s  c #7D1811",
"d  c #44200F",
"f  c #453700",
"g  c #4B3C01",
"h  c #462211",
"j  c #4B2514",
"k  c #4D2615",
"l  c #4D2817",
"z  c #4F2917",
"x  c #442619",
"c  c #492719",
"v  c #45291B",
"b  c #4D2919",
"n  c #4F2A18",
"m  c #4D2A1A",
"M  c #502716",
"N  c #502916",
"B  c #502918",
"V  c #512A19",
"C  c #522B19",
"Z  c #512B1A",
"A  c #512C1A",
"S  c #532C1A",
"D  c #542C1B",
"F  c #562E1B",
"G  c #512D1D",
"H  c #562E1C",
"J  c #582F1D",
"K  c #443912",
"L  c #4B391D",
"P  c #55301F",
"I  c #59301E",
"U  c #5A311E",
"Y  c #5A311F",
"T  c #4E2E20",
"R  c #512F20",
"E  c #4E3020",
"W  c #553222",
"Q  c #5A3220",
"!  c #5C3321",
"~  c #5B3523",
"^  c #5E3522",
"/  c #543925",
"(  c #5E3827",
")  c #583728",
"_  c #5E3929",
"`  c #603724",
"'  c #613926",
"]  c #633D2B",
"[  c #683E2C",
"{  c #245B0C",
"}  c #295D0E",
"|  c #335F10",
" . c #306010",
".. c #4F4109",
"X. c #544406",
"o. c #594909",
"O. c #574913",
"+. c #564A1B",
"@. c #584A19",
"#. c #64530D",
"$. c #6A560A",
"%. c #6D5909",
"&. c #705C0A",
"*. c #675614",
"=. c #6A5A1E",
"-. c #715F15",
";. c #715E1B",
":. c #466A18",
">. c #75610F",
",. c #776213",
"<. c #796515",
"1. c #7E6916",
"2. c #75631C",
"3. c #7A671C",
"4. c #7D6A1B",
"5. c #7B711C",
"6. c #564621",
"7. c #66402E",
"8. c #69412E",
"9. c #635020",
"0. c #6C5B22",
"q. c #664230",
"w. c #6B4432",
"e. c #6F4836",
"r. c #714936",
"t. c #744A37",
"y. c #744C39",
"u. c #7A513E",
"i. c #756323",
"p. c #786625",
"a. c #7C6A25",
"s. c #7A6828",
"d. c #6A7B27",
"f. c #767E29",
"g. c #7D5441",
"h. c #8A0405",
"j. c #8B0A07",
"k. c #85120B",
"l. c #8D140B",
"z. c #87180D",
"x. c #91210F",
"c. c #892915",
"v. c #932813",
"b. c #953B19",
"n. c #97451D",
"m. c #826D1B",
"M. c #86711C",
"N. c #89731D",
"B. c #8F781E",
"V. c #964521",
"C. c #846E22",
"Z. c #9C6728",
"A. c #877323",
"S. c #8B7524",
"D. c #8F7925",
"F. c #8B7728",
"G. c #8F7B29",
"H. c #937D26",
"J. c #937D2A",
"K. c #9C7C2A",
"L. c #8D7A30",
"P. c #A76D30",
"I. c #A77D35",
"U. c #6A842A",
"Y. c #73882D",
"T. c #96812C",
"R. c #9A842E",
"E. c #9B8631",
"W. c #958C35",
"Q. c #9E8A32",
"!. c #A38A2E",
"~. c #A28233",
"^. c #A28C35",
"/. c #AA8E3B",
"(. c #A99235",
"). c #A79239",
"_. c #AB953C",
"`. c #AB9C3E",
"'. c #AE9740",
"]. c #AD9F41",
"[. c #B29C42",
"{. c #BB9C42",
"}. c #B5A546",
"|. c #B7A548",
" X c #BBA649",
".X c #B9AB4A",
"XX c #C2A348",
/* pixels */
"h h j k k M F J F F N k k k h h d d h h h j h h , : h h h j j z z z z N S F m m Y Y Y Y Y J P F F D M r h r : > d h h d d d d d ",
"d h j k k N C H F F N z k k j k j j h h h h h h : = h h j z m N N N N S F Y P Y Y Y Y Y Y J Q J D D k r h , + = h d h h d M d k ",
"r j k k k N S Y Y F N k k j j j j h j d j j j h : : h j c z z z C m S S F J Y Y Y ! Y Y Q Y J H C k k r h , * , d j r h k d d k ",
"h j k k k z P Y Y H F z k j j j j j j j j j j j d d j k z z z n C z S F J J P Y Y Y Y ! Y ^ Q Y F C N k h d , d h d h h d d d d ",
"j j k k M N P Y Q Y H k k j j j j j d j z j k z , > z z z c z z m F H Q J P Y J Y Y ^ ^ ` Q H F z k c k j h h k j h h h d d d d ",
"j j k k M F P m P Y H C k j j j j j k m z C c C 0 0 C z z z n n m k m C H F F H J J ! ! H H C C C C z m j j k k k j h d d p d d ",
"r h h h N J k 4 Q Q Q F k h r j j k c m z m c c 0 0 N m z m m z m M C H C F S S G H P P H H G G F C S S m S M k N M d d r , r , ",
"r : r j C J c 3 v G m c t t , , c m z c j c c m , 9 m j z m m m M m M C m C F G H H F m x 4 = < = = > 0 0 9 0 0 > = * : = + = = ",
", # * 4 4 m 3 % < 2 0 w 3 * = # @ 3 c v G 0 * 3 * < * * 3 4 m S m m k C C C C C H m w 4 4 < # * % % = 0 x h x 4 # X ; h 4 > , d ",
"j 4 4 h x R 2 O 9 v W ( W 3 * 1 < * * 2 9 w W W W W W W P P G m C k k m m z m H H W G G m c c m m W W ~ ~ ~ P H 3 > S z j j d h ",
"h k k k C Q < * ( ] ] ] ] W w ) 8.8.] ] ] ( ' ( ( ( ~ Q Q P P S m j j k k m W Q Q ( ~ _ ' _ ! ` ] q.w.w.w.] ^ ~ 0 v S m j h h h ",
"r h t t k H * w ' ] ] [ ] 8.q.] ] 7.[ ] ] ] ( ~ ( ^ ~ ~ Q W G S S z c m m G ^ ( ] ] [ [ [ [ ] w.w.e.e.r.r.w.] ( v m P z j j j k ",
"d h h h j M * 4 ( ] [ [ q.[ 8._ _ 7.] ] ] _ W W ~ ( ~ ~ ~ W W P S m C H W ~ ( ] q.w.8.w.w.w.e.r.y.r.y.y.t.e.] ( w 3 m z j h k k ",
"h h h h h M * 4 Q ] ] ] q.w.q.[ 8.7.] ] _ ] _ ] _ ( ~ ~ ~ ~ W P P G S P ~ ~ ] q.w.r.w.w.e.t.u.u.u.u.u.y.r.r.] ^ 3 3 S z k j k k ",
"h h h k j k + 3 ] 8.' ] [ w.q.w.7.] ] W ( ] _ _ ~ ~ W ~ W W P P G G G W ~ ~ _ ] w.e.e.e.t.u.u.u.u.u.y.y.t.w.] ] 3 v S k k k k k ",
"j h r r r j + x ] [ w.[ w.w.w.] q.] 7.] ] ] _ _ ~ ~ W W W P P P G G S G ~ ~ ] ] w.e.r.t.u.u.u.u.t.t.e.e.w.8.] ] w T F z z k k k ",
"r h d d d r + j ] ] ] [ q.e.w.] ] ] ] q.] _ ~ ) ~ W W W W G P m m S G P ~ ( ] ] 8.r.r.r.u.t.t.y.r.w.8.[ [ ] ] ] m c C z z N C k ",
"h h d r r r O k ' ] ' ] [ [ w.q.q.] ] q._ _ ) ) W W W H H G S m G G H P ~ ~ ( ] [ [ r.r.t.t.t.r.e.8.[ [ ] ] [ ~ 9 > c S S N C S ",
"h h h r = O . C _ ~ ' ' [ q.q.q.[ q.] ] ] ) ~ T W R W G G W C P G S G W W 3 v E ' 8.w.t.t.e.e.w.r.8.8.[ 7.( G 0 # = ; c M C m F ",
"h h r r r = . x ~ ~ ~ _ ] _ ] q.] ] ] ] ( ~ ~ Q H W H R G G m m m S x G ~ v 3 W ] ] 8.8.w.q.e.w.8.8.[ [ ] _ E v O ; 0 S F F F N ",
"h h h h r h O 4 Q R R Q ~ R R _ ) ~ W W W T R R G m G m k m x j c k m m W H / ( H v ] ] ] [ [ [ 8.[ ] ' ' ` Y Y O = H F F C F z ",
"h r h h k r + = x 3 x 4 x c t 4 4 x h h x x + + % O - O . O @ % - O O . . . $ $     3 _ ] ' ] ] [ ' ` ` ^ Y Y Y w 0 H F F F H H ",
"k , h x c 3 * 3 3 # 4 < 4 x 3 * # * = : 3 . . 9.=.K e K a.F.J.^.^.(.0.L.Q.!.!.(.+.L W _ ` ' ' ' ^ ` ` ` ` ` ( ` ~ ] ^ ! H Q Q ! ",
"c h x m C v x R T R ] ~ _ ) ~ ~ ~ x c c r + 0.J.G.G.J.D.A.J.Q.E.Q.T.a.#.S.R.*.T.@.L ] ] ] ] W ` ' ' ] ' ] ] ] ' ` ` ' ~ _ ! ( ~ ",
"m J H W W ~ ~ Q ( ^ ( ( _ _ ~ _ ) ~ R J h . i.T.=.S.T.3.3.T.^.~.n.W.F.S.E.E.-.J.=.6.] ' ] ] ( ] [ 8.[ [ [ ] [ ] ] ' ] ' ' ` ^ ^ ",
"F G m Q Q ~ ( ( ( ( ( ( _ _ _ ~ ~ _ ~ R c . p.J.g J.E.Q.).^.).Z.x.].).^.Q.E.T.G.i.L ( ' ' ] ] _ 8.8.] [ [ [ [ [ ] ] ' ' ' ' ~ ~ ",
"3 m x w v ~ ^ ( ( ( ] _ ] ] ` ] _ ] ` ~ R . s.J.A.E.Q.Z.b._.`.j.l.!.Z.l.K.^.#.J.C.% ( _ ' ] q.q.8.8.8.] ] [ [ [ [ ] ' ' ' ` _ ^ ",
"3 3 m x m Q ( ( ( ] ] ] ] ] ] ] ] ] ] _ W . s.J.R.Q.^.`.v.h.l.l.l.j.h.b.).^.f J.A.% ( ( ( ] 8._ w.8.[ ] ~ ] ] [ ] ' ' ' ( ( _ ~ ",
"h x C C G ~ ( ( ' ] q.q.q.q.[ q.[ w.w.] )   p.J.3.R.^.).].l.k.k.k.k.l.I.^.^.A.J.F.1 ~ ( ( _ ] ] 8.8.8.8.( ] ] ] ' ] ' ( ( ( Q ^ ",
"j c k m G ~ _ _ ] q.r.y.r.w.e.q.e.e.q._ ) @ i.E...T.)._.|.l.i i i s k.|.).Q.Q.T.p.* ~ ( ( ] ] 8.q.8.8.8.[ ] ] ' ] ] ( ^ ^ ! ^ Q ",
"j j h C W ~ ] ] r.g.g.g.y.r.q.q.e.q.] ) W * 0.J.D.Q.)._.|.z.a u p p k..X_.Q.=.M.=.2 ( ( _ ] ] ] 8.8.8.8.] ] ] ] ` ` ( ~ ~ ^ ~ Q ",
"h j j R R ( ] ] e.r.r.r.r.q.r.q.w.] ] ) R * 6.J.T.Q.).`.}.c.p a p y P.}.'.Q.3.J.+.9 ( ( ' _ ] ] 8.e.8.8.] ` ( ^ ( Q Q Q Q Q Q R ",
"h j m H W _ _ ] q.q.] ] ] ] ] ] _ _ ~ W m ; +.J.R.^._._.[./.s u u V.|.[._.^.R.J.e v _ ] ( ( _ ( ( _ ( ' ] ( ! W x W W H H P H C ",
"j h m G C Q W _ ] _ ] _ _ ) ) T W W m G m > L T.J.2.^._.[.[. XY.U.|.[.[._.^.J.F.5 ~ ( _ ( ( ~ W P W W ~ R v m 4 O H H C m S C k ",
"h h c m m T R C H R R x T c 4 2 0 c m W P v e T.R.#.(._.'.[.{.d.d.XX[.[./.^.-.C.q ~ ~ ( ~ ~ W P 0 0 x x w * h 3 * h m k N M j j ",
"* * * h 4 = = 3 3 2 2 * 4 1 # * * G ^ / _ G   R.J.^.^./._./._. .f.:.W._.^.^.g C.q ~ ~ ^ ~ ~ ~ P 2 9 2 3 3 < x 2 2 = 0 3 0 , 0 c ",
": = + r =   O = 3 1 = 3 2 w % 1 * ~ _ 7._ _ @ G.D.R.^.^.(.).`.{ | } _.^.E.J.S.C.w ) ~ / ~ ~ ~ Q W / W W m E G c c h 0 9 , 4 , h ",
"t j r j h * . < R Q ~ ) _ _ ] _ _ q.q.q.q._ 1 +.N.F.D.Q.!.!.(.{ { f.^.Q.R.m.S.;.v ~ ) ( ~ ~ ~ ( _ ] ] ' _ ( ( ^ W Y F S F C N x ",
"j r r r 4 , O m R ~ ~ _ ] q.q.q.w.e.w.w.q.] v K 3.,.X.D.T.R.Q.{ R.Q.R.T.N.X.B.o P ~ ~ ~ _ ( _ ] ] ] ] ] ( ( ( ( ~ ^ ~ ~ Y P C N ",
"r h h h 4 4 @ R ~ ~ _ _ _ ] q.w.g.w.w.w.q.q.q.6 7 M.,.N.T.K.!.{ T.R.H.H.M.M.O.* _ _ _ ] ] ] 7.q.q.q.q.8.] ] ( ' ( _ ( ^ ^ Y W S ",
"j h d k d r + F ~ ) _ _ ] ] ] w.w.e.e.q.e.e.q.9 $ #.4.N.D.D.K.| 5.T.B.M.M.O.- ) ) _ ] ] q.q.w.w.w.w.w.w.w.] ] ] ] ( ( ( ^ ~ Q Q ",
"h h d d k r + J ~ W T ] _ ] q.q.w.w.q.e.q.e.q.q./ - &.5.m.M.B.5.M.M.M.>.*.6 L ~ _ _ _ ] q.q.w.w.w.w.w.e.e.w.q.] ] W ( ( ^ Q Q W ",
"h h h d h h O ! W W c _ ] ] q.] q.w.q.q.e.q.e.q._ 1 5 $.,.g M.M.M.M.g >.7 6 _ ~ _ _ _ q.] q.w.w.w.e.e.e.e.e.7.] _ W ~ W ~ Q W Y ",
"h r r d t 4 # Q ~ W _ _ _ _ ] q.q.w.e.q.q.e.q.6.~ / % 5 %.>.<.m.1.>.#.o.- W ) ) _ _ _ _ q.q.w.w.w.w.w.w.w.8.] ] ' ( ~ T Q P Y W ",
"j r r j h 4 + W ~ W _ _ _ ] ] [ q.q.q.w.e.e.) ) W W ) 1 5 $.>.$.%.>.%.7 v ~ ) _ _ _ _ q.q.q.w.q.w.w.w.w.q.] ] ( ( ( ( ( Q W P Y ",
"h r r r h , # P W W ~ ) ) _ ] _ ] ] ] q.q.) ) ) W W / W % 7 %.$.o.%.8 2 ) _ _ ~ _ _ ] ] ] q.7.] ] 7.] ] ] _ _ ( ( ~ Q ~ Q P H H ",
"h h j r h > # G Q Q W _ _ ) ) _ _ ) _ ] _ ) ) E W T W G m 6 & %.%...% W W W W W ) ~ _ _ ] _ ] ] ] _ _ ( ~ Q Q W H R H H H G G H ",
"h h r j r > O m H R R W R ) W W W W R ) ) ) E E m m m G T m = X.&.& G L W m R W W W ~ _ _ ~ _ _ _ ~ ~ ~ Q Q R H H C C M m m C G ",
"h d d k > = . : , r : > t 4 4 j m z z C m m m S m z z c c c z h t z z R G G G G W W ~ ! R v w x v w w x m m G C C m z z z S m z ",
"h r r : * * o O + * O + = = = = 0 > = x j S F P P N S S z k h h j b m z G G G G G W W W 2 2 9 0 ; 4 9 3 3 > 9 x j h k k z h x j ",
"h r r r r r j r r j x h h x 4 2 : > h J Y Y P P P H P F S N j j c m z b G G G G m m W c c 2 ; 4 c c c k 0 0 > : # * , d h r > h ",
"M M M M F F J F J J Q Q Q ! ~ ! ^ ^ ^ ` ( ^ ( Y P Y H P F S k d z B j z B G G m G G m c k c c m k m m m z z x # . : , h h h h h ",
"N D C F J F J Y Y Y ( Y ~ ^ ^ ( ` ` ` ` ` ' [ ^ ^ ~ Y Y S C z j j j c z z m m G G G C m m m m m m m k c m m c * = d d d h h h h ",
"C F F F C F J J Y Y Y Y Q ^ ^ ^ ` ` ` ` 8.[ [ [ ] ( Y Y F F k j j j j k m m R C G m C G G m D m m m m c h 9 h : + d k d h h d h ",
"C M C F J C J J Y Y Y ^ ^ ^ ^ ( ` ` ` [ 8.r.r.8.[ ` Y P P S z j j j c b v R W W W R G G C m m C m m z c c h x = = r d k h h h h ",
"M M M N C J J J Y Y Y Y Y Y ^ ^ ` ` [ 8.8.8.8.8.' ^ Y Y S C N z c k z b W _ W W G W H G G m D m M N z z c k j 0 r d d d h h h h ",
"j j j j N F F I Y Y V P Y I Y ` ' [ [ [ [ [ [ 8.' ^ F F N k k k z j v W _ ) W W H W G G G G C m C k k M k k j : = r j d d h d h ",
"j j j N N F I F Y F j S Y I Y Y ^ ' [ [ [ [ [ [ ' Q F S F k k j j c W _ ) ) W W R R W G H G m m x M c k k k j = = r h d y d j d ",
"d N M j N F I I F F F I U U Y ` ^ ^ ` ] ` [ [ ` ^ F H G k j k j j m W W W W W W H H G H G k m j k k k k k j d = + d d h h h d d ",
"j d d j M N N V F F F I U U I Y ^ ^ ` ] [ ` ` ^ Q Y C C k j j k c m G G G m R W G G m N C m z k k k k M r r r = = d h h h h d h ",
"d d j d d k k k V N V I U Y Y Y Y P ~ ' ] ^ ! ` Y C m 0 r r r r k k D F m k c j j j j j k j j j j h h h r r d + : h h h h j j r ",
"j M j N j j j N N k V I U U I I Y v m ' W Y J D 4 > k h : o , j r j r r j x > = = = = + > h r r h t t r , : r + * h h r h h j d ",
"d d d M d k k k N N z S U U U I G v c m * * = > = o . o o o O r r r r + * ; , , + o o o + = : = , , r > + : : o o , r r r r r r ",
"u d d j k k h h k k k n U U U U m 3 * ; c c : r , * * = = * , r , r t r r t h h + o + > , , , , , r j r = , r * + = = : r : + , "
};
